ffmpeg started on 2025-05-12 at 17:33:46
Report written to "D:\Convert\FFMetrics\reports\psnr_report-6.txt"
Log level: 32
Command line:
ffmpeg -hide_banner -nostdin -i "G:\\\xc0\xed\xe8\xec\xe5\\\xce\xed\xe3\xee\xe8\xed\xe3\xe8\\!_35_\xcb\xe5\xf2\xee_2024\\DreamCast\\\xce\xef\xe5\xf0\xe0\xf6\xe8\xff - \xd1\xe5\xec\xe5\xe9\xea\xe0 \xa8\xe4\xe7\xe0\xea\xf3\xf0\xe0\\[DC] Yozakura-san Chi no Daisakusen - 16_Telegram_HEVC.mkv" -i "G:\\\xc0\xed\xe8\xec\xe5\\\xce\xed\xe3\xee\xe8\xed\xe3\xe8\\!_35_\xcb\xe5\xf2\xee_2024\\DreamCast\\\xce\xef\xe5\xf0\xe0\xf6\xe8\xff - \xd1\xe5\xec\xe5\xe9\xea\xe0 \xa8\xe4\xe7\xe0\xea\xf3\xf0\xe0\\[DC] Yozakura-san Chi no Daisakusen - 16_Telegram.mp4" -lavfi "[0:v]settb=AVTB,setpts=PTS-STARTPTS,format=pix_fmts=yuv420p10,fps=24000/1001,scale=1920:1080:flags=bicubic[main];[1:v]settb=AVTB,setpts=PTS-STARTPTS,format=pix_fmts=yuv420p,fps=24000/1001,scale=1920:1080:flags=bicubic[ref];[main][ref]psnr=eof_action=endall:stats_file='D\\:/Convert/FFMetrics/logs/psnr_logfile-6.txt'" -f null -
Input #0, matroska,webm, from 'G:\Аниме\Онгоинги\!_35_Лето_2024\DreamCast\Операция - Семейка Ёдзакура\[DC] Yozakura-san Chi no Daisakusen - 16_Telegram_HEVC.mkv':
  Metadata:
    COMPATIBLE_BRANDS: isomiso2avc1mp41
    MAJOR_BRAND     : isom
    MINOR_VERSION   : 512
    ENCODER         : Lavf61.7.100
  Duration: 00:24:13.65, start: -0.021000, bitrate: 1524 kb/s
  Stream #0:0: Video: hevc (Main 10), yuv420p10le(tv, bt709, progressive), 1920x1080 [SAR 1:1 DAR 16:9], 23.98 fps, 23.98 tbr, 1k tbn (default)
      Metadata:
        HANDLER_NAME    : VideoHandler
        VENDOR_ID       : [0][0][0][0]
        ENCODER         : Lavc61.19.100 libx265
        BPS             : 1327392
        DURATION        : 00:24:13.535708333
        NUMBER_OF_FRAMES: 34850
        NUMBER_OF_BYTES : 241176422
        _STATISTICS_WRITING_APP: mkvpropedit v66.0.0 ('Josie') 64-bit
        _STATISTICS_WRITING_DATE_UTC: 2025-05-08 15:41:29
        _STATISTICS_TAGS: BPS DURATION NUMBER_OF_FRAMES NUMBER_OF_BYTES
  Stream #0:1: Audio: aac (LC), 48000 Hz, stereo, fltp (default)
      Metadata:
        HANDLER_NAME    : SoundHandler
        VENDOR_ID       : [0][0][0][0]
        ENCODER         : Lavc61.19.100 aac
        BPS             : 193508
        DURATION        : 00:24:13.653000000
        NUMBER_OF_FRAMES: 68141
        NUMBER_OF_BYTES : 35161780
        _STATISTICS_WRITING_APP: mkvpropedit v66.0.0 ('Josie') 64-bit
        _STATISTICS_WRITING_DATE_UTC: 2025-05-08 15:41:29
        _STATISTICS_TAGS: BPS DURATION NUMBER_OF_FRAMES NUMBER_OF_BYTES
Input #1, mov,mp4,m4a,3gp,3g2,mj2, from 'G:\Аниме\Онгоинги\!_35_Лето_2024\DreamCast\Операция - Семейка Ёдзакура\[DC] Yozakura-san Chi no Daisakusen - 16_Telegram.mp4':
  Metadata:
    major_brand     : isom
    minor_version   : 512
    compatible_brands: isomiso2avc1mp41
    encoder         : Lavf61.1.100
  Duration: 00:24:13.60, start: 0.000000, bitrate: 3668 kb/s
  Stream #1:0[0x1](und): Video: h264 (High) (avc1 / 0x31637661), yuv420p(tv, bt709, progressive), 1920x1080 [SAR 1:1 DAR 16:9], 3520 kb/s, 23.98 fps, 23.98 tbr, 24k tbn (default)
      Metadata:
        handler_name    : VideoHandler
        vendor_id       : [0][0][0][0]
        encoder         : Lavc61.3.100 h264_qsv
  Stream #1:1[0x2](und): Audio: aac (HE-AACv2) (mp4a / 0x6134706D), 48000 Hz, stereo, fltp, 144 kb/s (default)
      Metadata:
        handler_name    : SoundHandler
        vendor_id       : [0][0][0][0]
Stream mapping:
  Stream #0:0 (hevc) -> settb:default
  Stream #1:0 (h264) -> settb:default
  psnr:default -> Stream #0:0 (wrapped_avframe)
  Stream #0:1 -> #0:1 (aac (native) -> pcm_s16le (native))
Output #0, null, to 'pipe:':
  Metadata:
    COMPATIBLE_BRANDS: isomiso2avc1mp41
    MAJOR_BRAND     : isom
    MINOR_VERSION   : 512
    encoder         : Lavf61.7.100
  Stream #0:0: Video: wrapped_avframe, yuv420p10le(tv, bt709, progressive), 1920x1080 [SAR 1:1 DAR 16:9], q=2-31, 200 kb/s, 23.98 fps, 23.98 tbn
      Metadata:
        encoder         : Lavc61.19.100 wrapped_avframe
  Stream #0:1: Audio: pcm_s16le, 48000 Hz, stereo, s16, 1536 kb/s (default)
      Metadata:
        HANDLER_NAME    : SoundHandler
        VENDOR_ID       : [0][0][0][0]
        _STATISTICS_TAGS: BPS DURATION NUMBER_OF_FRAMES NUMBER_OF_BYTES
        BPS             : 193508
        DURATION        : 00:24:13.653000000
        NUMBER_OF_FRAMES: 68141
        NUMBER_OF_BYTES : 35161780
        _STATISTICS_WRITING_APP: mkvpropedit v66.0.0 ('Josie') 64-bit
        _STATISTICS_WRITING_DATE_UTC: 2025-05-08 15:41:29
        encoder         : Lavc61.19.100 pcm_s16le
frame=  167 fps=0.0 q=-0.0 size=N/A time=00:00:06.96 bitrate=N/A speed=13.4x    frame=  381 fps=371 q=-0.0 size=N/A time=00:00:15.89 bitrate=N/A speed=15.5x    frame=  646 fps=417 q=-0.0 size=N/A time=00:00:26.94 bitrate=N/A speed=17.4x    frame=  819 fps=398 q=-0.0 size=N/A time=00:00:34.15 bitrate=N/A speed=16.6x    frame= 1049 fps=407 q=-0.0 size=N/A time=00:00:43.75 bitrate=N/A speed=  17x    frame= 1243 fps=401 q=-0.0 size=N/A time=00:00:51.84 bitrate=N/A speed=16.7x    frame= 1415 fps=392 q=-0.0 size=N/A time=00:00:59.01 bitrate=N/A speed=16.4x    frame= 1651 fps=400 q=-0.0 size=N/A time=00:01:08.86 bitrate=N/A speed=16.7x    frame= 1880 fps=405 q=-0.0 size=N/A time=00:01:18.41 bitrate=N/A speed=16.9x    frame= 2137 fps=414 q=-0.0 size=N/A time=00:01:29.13 bitrate=N/A speed=17.3x    frame= 2407 fps=425 q=-0.0 size=N/A time=00:01:40.39 bitrate=N/A speed=17.7x    frame= 2675 fps=432 q=-0.0 size=N/A time=00:01:51.56 bitrate=N/A speed=  18x    frame= 2949 fps=440 q=-0.0 size=N/A time=00:02:02.99 bitrate=N/A speed=18.4x    frame= 3217 fps=446 q=-0.0 size=N/A time=00:02:14.17 bitrate=N/A speed=18.6x    frame= 3501 fps=453 q=-0.0 size=N/A time=00:02:26.02 bitrate=N/A speed=18.9x    frame= 3661 fps=444 q=-0.0 size=N/A time=00:02:32.69 bitrate=N/A speed=18.5x    frame= 3832 fps=437 q=-0.0 size=N/A time=00:02:39.82 bitrate=N/A speed=18.2x    frame= 3999 fps=431 q=-0.0 size=N/A time=00:02:46.79 bitrate=N/A speed=  18x    frame= 4219 fps=431 q=-0.0 size=N/A time=00:02:55.96 bitrate=N/A speed=  18x    frame= 4445 fps=431 q=-0.0 size=N/A time=00:03:05.39 bitrate=N/A speed=  18x    frame= 4639 fps=429 q=-0.0 size=N/A time=00:03:13.48 bitrate=N/A speed=17.9x    frame= 4870 fps=429 q=-0.0 size=N/A time=00:03:23.11 bitrate=N/A speed=17.9x    frame= 5044 fps=424 q=-0.0 size=N/A time=00:03:30.37 bitrate=N/A speed=17.7x    frame= 5198 fps=419 q=-0.0 size=N/A time=00:03:36.79 bitrate=N/A speed=17.5x    frame= 5423 fps=420 q=-0.0 size=N/A time=00:03:46.18 bitrate=N/A speed=17.5x    frame= 5598 fps=417 q=-0.0 size=N/A time=00:03:53.48 bitrate=N/A speed=17.4x    frame= 5822 fps=418 q=-0.0 size=N/A time=00:04:02.82 bitrate=N/A speed=17.4x    frame= 6061 fps=419 q=-0.0 size=N/A time=00:04:12.79 bitrate=N/A speed=17.5x    frame= 6321 fps=422 q=-0.0 size=N/A time=00:04:23.63 bitrate=N/A speed=17.6x    frame= 6590 fps=425 q=-0.0 size=N/A time=00:04:34.85 bitrate=N/A speed=17.7x    frame= 6859 fps=429 q=-0.0 size=N/A time=00:04:46.07 bitrate=N/A speed=17.9x    frame= 7134 fps=432 q=-0.0 size=N/A time=00:04:57.54 bitrate=N/A speed=  18x    frame= 7393 fps=434 q=-0.0 size=N/A time=00:05:08.34 bitrate=N/A speed=18.1x    frame= 7645 fps=436 q=-0.0 size=N/A time=00:05:18.86 bitrate=N/A speed=18.2x    frame= 7914 fps=438 q=-0.0 size=N/A time=00:05:30.07 bitrate=N/A speed=18.3x    frame= 8172 fps=440 q=-0.0 size=N/A time=00:05:40.84 bitrate=N/A speed=18.4x    frame= 8443 fps=442 q=-0.0 size=N/A time=00:05:52.14 bitrate=N/A speed=18.4x    frame= 8711 fps=444 q=-0.0 size=N/A time=00:06:03.32 bitrate=N/A speed=18.5x    frame= 8974 fps=446 q=-0.0 size=N/A time=00:06:14.29 bitrate=N/A speed=18.6x    frame= 9250 fps=448 q=-0.0 size=N/A time=00:06:25.80 bitrate=N/A speed=18.7x    frame= 9513 fps=449 q=-0.0 size=N/A time=00:06:36.77 bitrate=N/A speed=18.7x    frame= 9775 fps=451 q=-0.0 size=N/A time=00:06:47.69 bitrate=N/A speed=18.8x    frame=10018 fps=451 q=-0.0 size=N/A time=00:06:57.83 bitrate=N/A speed=18.8x    frame=10255 fps=451 q=-0.0 size=N/A time=00:07:07.71 bitrate=N/A speed=18.8x    frame=10481 fps=451 q=-0.0 size=N/A time=00:07:17.14 bitrate=N/A speed=18.8x    frame=10695 fps=450 q=-0.0 size=N/A time=00:07:26.07 bitrate=N/A speed=18.8x    frame=10916 fps=450 q=-0.0 size=N/A time=00:07:35.28 bitrate=N/A speed=18.8x    frame=11175 fps=451 q=-0.0 size=N/A time=00:07:46.09 bitrate=N/A speed=18.8x    frame=11353 fps=449 q=-0.0 size=N/A time=00:07:53.51 bitrate=N/A speed=18.7x    frame=11564 fps=448 q=-0.0 size=N/A time=00:08:02.31 bitrate=N/A speed=18.7x    frame=11806 fps=448 q=-0.0 size=N/A time=00:08:12.40 bitrate=N/A speed=18.7x    frame=12065 fps=449 q=-0.0 size=N/A time=00:08:23.21 bitrate=N/A speed=18.7x    frame=12329 fps=451 q=-0.0 size=N/A time=00:08:34.22 bitrate=N/A speed=18.8x    frame=12599 fps=452 q=-0.0 size=N/A time=00:08:45.48 bitrate=N/A speed=18.8x    frame=12861 fps=453 q=-0.0 size=N/A time=00:08:56.41 bitrate=N/A speed=18.9x    frame=13122 fps=454 q=-0.0 size=N/A time=00:09:07.29 bitrate=N/A speed=18.9x    frame=13357 fps=454 q=-0.0 size=N/A time=00:09:17.09 bitrate=N/A speed=18.9x    frame=13620 fps=455 q=-0.0 size=N/A time=00:09:28.06 bitrate=N/A speed=  19x    frame=13876 fps=456 q=-0.0 size=N/A time=00:09:38.74 bitrate=N/A speed=  19x    frame=14106 fps=455 q=-0.0 size=N/A time=00:09:48.33 bitrate=N/A speed=  19x    frame=14323 fps=455 q=-0.0 size=N/A time=00:09:57.38 bitrate=N/A speed=  19x    frame=14581 fps=456 q=-0.0 size=N/A time=00:10:08.14 bitrate=N/A speed=  19x    frame=14820 fps=456 q=-0.0 size=N/A time=00:10:18.11 bitrate=N/A speed=  19x    frame=15037 fps=455 q=-0.0 size=N/A time=00:10:27.16 bitrate=N/A speed=  19x    frame=15280 fps=455 q=-0.0 size=N/A time=00:10:37.30 bitrate=N/A speed=  19x    frame=15448 fps=454 q=-0.0 size=N/A time=00:10:44.31 bitrate=N/A speed=18.9x    frame=15668 fps=453 q=-0.0 size=N/A time=00:10:53.48 bitrate=N/A speed=18.9x    frame=15925 fps=454 q=-0.0 size=N/A time=00:11:04.20 bitrate=N/A speed=18.9x    frame=16180 fps=454 q=-0.0 size=N/A time=00:11:14.84 bitrate=N/A speed=18.9x    frame=16397 fps=454 q=-0.0 size=N/A time=00:11:23.89 bitrate=N/A speed=18.9x    frame=16640 fps=454 q=-0.0 size=N/A time=00:11:34.02 bitrate=N/A speed=18.9x    frame=16852 fps=453 q=-0.0 size=N/A time=00:11:42.86 bitrate=N/A speed=18.9x    frame=17117 fps=454 q=-0.0 size=N/A time=00:11:53.92 bitrate=N/A speed=  19x    frame=17391 fps=455 q=-0.0 size=N/A time=00:12:05.34 bitrate=N/A speed=  19x    frame=17645 fps=456 q=-0.0 size=N/A time=00:12:15.94 bitrate=N/A speed=  19x    frame=17915 fps=457 q=-0.0 size=N/A time=00:12:27.20 bitrate=N/A speed=19.1x    frame=18172 fps=457 q=-0.0 size=N/A time=00:12:37.92 bitrate=N/A speed=19.1x    frame=18418 fps=458 q=-0.0 size=N/A time=00:12:48.18 bitrate=N/A speed=19.1x    frame=18601 fps=456 q=-0.0 size=N/A time=00:12:55.81 bitrate=N/A speed=  19x    frame=18864 fps=457 q=-0.0 size=N/A time=00:13:06.78 bitrate=N/A speed=19.1x    frame=19121 fps=457 q=-0.0 size=N/A time=00:13:17.50 bitrate=N/A speed=19.1x    frame=19359 fps=458 q=-0.0 size=N/A time=00:13:27.43 bitrate=N/A speed=19.1x    frame=19600 fps=458 q=-0.0 size=N/A time=00:13:37.48 bitrate=N/A speed=19.1x    frame=19840 fps=458 q=-0.0 size=N/A time=00:13:47.49 bitrate=N/A speed=19.1x    frame=20107 fps=458 q=-0.0 size=N/A time=00:13:58.62 bitrate=N/A speed=19.1x    frame=20339 fps=458 q=-0.0 size=N/A time=00:14:08.30 bitrate=N/A speed=19.1x    frame=20564 fps=458 q=-0.0 size=N/A time=00:14:17.69 bitrate=N/A speed=19.1x    frame=20792 fps=458 q=-0.0 size=N/A time=00:14:27.19 bitrate=N/A speed=19.1x    frame=21045 fps=458 q=-0.0 size=N/A time=00:14:37.75 bitrate=N/A speed=19.1x    frame=21182 fps=456 q=-0.0 size=N/A time=00:14:43.46 bitrate=N/A speed=  19x    frame=21304 fps=453 q=-0.0 size=N/A time=00:14:48.55 bitrate=N/A speed=18.9x    frame=21533 fps=453 q=-0.0 size=N/A time=00:14:58.10 bitrate=N/A speed=18.9x    frame=21779 fps=454 q=-0.0 size=N/A time=00:15:08.36 bitrate=N/A speed=18.9x    frame=21985 fps=453 q=-0.0 size=N/A time=00:15:16.95 bitrate=N/A speed=18.9x    frame=22225 fps=453 q=-0.0 size=N/A time=00:15:26.96 bitrate=N/A speed=18.9x    frame=22441 fps=453 q=-0.0 size=N/A time=00:15:35.97 bitrate=N/A speed=18.9x    frame=22630 fps=452 q=-0.0 size=N/A time=00:15:43.85 bitrate=N/A speed=18.8x    frame=22862 fps=452 q=-0.0 size=N/A time=00:15:53.53 bitrate=N/A speed=18.8x    frame=23092 fps=452 q=-0.0 size=N/A time=00:16:03.12 bitrate=N/A speed=18.8x    frame=23343 fps=452 q=-0.0 size=N/A time=00:16:13.59 bitrate=N/A speed=18.9x    frame=23536 fps=451 q=-0.0 size=N/A time=00:16:21.64 bitrate=N/A speed=18.8x    frame=23711 fps=450 q=-0.0 size=N/A time=00:16:28.94 bitrate=N/A speed=18.8x    frame=23872 fps=449 q=-0.0 size=N/A time=00:16:35.66 bitrate=N/A speed=18.7x    frame=24084 fps=448 q=-0.0 size=N/A time=00:16:44.50 bitrate=N/A speed=18.7x    frame=24312 fps=448 q=-0.0 size=N/A time=00:16:54.01 bitrate=N/A speed=18.7x    frame=24495 fps=448 q=-0.0 size=N/A time=00:17:01.64 bitrate=N/A speed=18.7x    frame=24699 fps=447 q=-0.0 size=N/A time=00:17:10.15 bitrate=N/A speed=18.6x    frame=24958 fps=448 q=-0.0 size=N/A time=00:17:20.95 bitrate=N/A speed=18.7x    frame=25209 fps=448 q=-0.0 size=N/A time=00:17:31.42 bitrate=N/A speed=18.7x    frame=25413 fps=447 q=-0.0 size=N/A time=00:17:39.93 bitrate=N/A speed=18.7x    frame=25632 fps=447 q=-0.0 size=N/A time=00:17:49.06 bitrate=N/A speed=18.6x    frame=25796 fps=446 q=-0.0 size=N/A time=00:17:55.90 bitrate=N/A speed=18.6x    frame=25997 fps=445 q=-0.0 size=N/A time=00:18:04.29 bitrate=N/A speed=18.6x    frame=26247 fps=446 q=-0.0 size=N/A time=00:18:14.71 bitrate=N/A speed=18.6x    frame=26498 fps=446 q=-0.0 size=N/A time=00:18:25.18 bitrate=N/A speed=18.6x    frame=26718 fps=446 q=-0.0 size=N/A time=00:18:34.36 bitrate=N/A speed=18.6x    frame=26954 fps=446 q=-0.0 size=N/A time=00:18:44.20 bitrate=N/A speed=18.6x    frame=27225 fps=447 q=-0.0 size=N/A time=00:18:55.50 bitrate=N/A speed=18.6x    frame=27474 fps=447 q=-0.0 size=N/A time=00:19:05.89 bitrate=N/A speed=18.6x    frame=27729 fps=447 q=-0.0 size=N/A time=00:19:16.53 bitrate=N/A speed=18.7x    frame=27983 fps=448 q=-0.0 size=N/A time=00:19:27.12 bitrate=N/A speed=18.7x    frame=28222 fps=448 q=-0.0 size=N/A time=00:19:37.09 bitrate=N/A speed=18.7x    frame=28456 fps=448 q=-0.0 size=N/A time=00:19:46.85 bitrate=N/A speed=18.7x    frame=28692 fps=448 q=-0.0 size=N/A time=00:19:56.69 bitrate=N/A speed=18.7x    frame=28942 fps=448 q=-0.0 size=N/A time=00:20:07.12 bitrate=N/A speed=18.7x    frame=29203 fps=449 q=-0.0 size=N/A time=00:20:18.00 bitrate=N/A speed=18.7x    frame=29470 fps=449 q=-0.0 size=N/A time=00:20:29.14 bitrate=N/A speed=18.7x    frame=29720 fps=450 q=-0.0 size=N/A time=00:20:39.57 bitrate=N/A speed=18.7x    frame=29987 fps=450 q=-0.0 size=N/A time=00:20:50.70 bitrate=N/A speed=18.8x    frame=30210 fps=450 q=-0.0 size=N/A time=00:21:00.00 bitrate=N/A speed=18.8x    frame=30443 fps=450 q=-0.0 size=N/A time=00:21:09.72 bitrate=N/A speed=18.8x    frame=30668 fps=450 q=-0.0 size=N/A time=00:21:19.11 bitrate=N/A speed=18.8x    frame=30892 fps=450 q=-0.0 size=N/A time=00:21:28.45 bitrate=N/A speed=18.8x    frame=31098 fps=449 q=-0.0 size=N/A time=00:21:37.04 bitrate=N/A speed=18.7x    frame=31331 fps=449 q=-0.0 size=N/A time=00:21:46.76 bitrate=N/A speed=18.7x    frame=31559 fps=449 q=-0.0 size=N/A time=00:21:56.27 bitrate=N/A speed=18.7x    frame=31811 fps=449 q=-0.0 size=N/A time=00:22:06.78 bitrate=N/A speed=18.7x    frame=32031 fps=449 q=-0.0 size=N/A time=00:22:15.95 bitrate=N/A speed=18.7x    frame=32267 fps=449 q=-0.0 size=N/A time=00:22:25.80 bitrate=N/A speed=18.7x    frame=32536 fps=450 q=-0.0 size=N/A time=00:22:37.02 bitrate=N/A speed=18.8x    frame=32708 fps=449 q=-0.0 size=N/A time=00:22:44.19 bitrate=N/A speed=18.7x    frame=32854 fps=448 q=-0.0 size=N/A time=00:22:50.28 bitrate=N/A speed=18.7x    frame=33006 fps=447 q=-0.0 size=N/A time=00:22:56.62 bitrate=N/A speed=18.6x    frame=33230 fps=447 q=-0.0 size=N/A time=00:23:05.96 bitrate=N/A speed=18.6x    frame=33391 fps=446 q=-0.0 size=N/A time=00:23:12.68 bitrate=N/A speed=18.6x    frame=33562 fps=445 q=-0.0 size=N/A time=00:23:19.81 bitrate=N/A speed=18.6x    frame=33771 fps=445 q=-0.0 size=N/A time=00:23:28.53 bitrate=N/A speed=18.6x    frame=33980 fps=445 q=-0.0 size=N/A time=00:23:37.24 bitrate=N/A speed=18.5x    frame=34144 fps=444 q=-0.0 size=N/A time=00:23:44.08 bitrate=N/A speed=18.5x    frame=34290 fps=443 q=-0.0 size=N/A time=00:23:50.17 bitrate=N/A speed=18.5x    frame=34441 fps=442 q=-0.0 size=N/A time=00:23:56.47 bitrate=N/A speed=18.4x    frame=34603 fps=441 q=-0.0 size=N/A time=00:24:03.23 bitrate=N/A speed=18.4x    frame=34781 fps=440 q=-0.0 size=N/A time=00:24:10.65 bitrate=N/A speed=18.4x    [Parsed_psnr_10 @ 000001e31e574780] PSNR y:48.012869 u:50.454501 v:50.626073 average:48.703529 min:40.483317 max:inf
[out#0/null @ 000001e3115267c0] video:14975KiB audio:272564KiB subtitle:0KiB other streams:0KiB global headers:0KiB muxing overhead: unknown
frame=34850 fps=440 q=-0.0 Lsize=N/A time=00:24:13.53 bitrate=N/A speed=18.3x    
